<?xml version="1.0" encoding="UTF-8"?>
<svg xmlns="http://www.w3.org/2000/svg" viewBox="0 0 512 512" width="512" height="512">
  <defs>
    <linearGradient id="sky" x1="0" y1="0" x2="0" y2="1">
      <stop offset="0" stop-color="#7ec8ff"/>
      <stop offset="1" stop-color="#b8ecff"/>
    </linearGradient>
  </defs>
  <rect width="512" height="512" fill="url(#sky)"/>
  <ellipse cx="256" cy="430" rx="150" ry="28" fill="#1e6b3a"/>
     <path d="M140 360 q116 90 232 0 v40 q-116 70 -232 0z" fill="#c4782a" stroke="#7a3e12" stroke-width="8"/>
     <path d="M160 360 q96 -70 192 0" fill="none" stroke="#7a3e12" stroke-width="8"/>
     <circle cx="180" cy="150" r="28" fill="#f4c430"/>
     <circle cx="300" cy="110" r="22" fill="#ffd24a"/>
     <circle cx="340" cy="210" r="18" fill="#f0b429"/>
     <circle cx="220" cy="70" r="26" fill="#1a1a1a"/>
     <circle cx="390" cy="160" r="22" fill="#222"/>
     <path d="M230 200 l18 -70 22 18 20 -40 22 40 24 -18 14 70z" fill="#f5c542" stroke="#b8860b" stroke-width="4"/>
     <circle cx="256" cy="148" r="8" fill="#6ec8ff"/>
</svg>